<svg xmlns="http://www.w3.org/2000/svg" xmlns:xlink="http://www.w3.org/1999/xlink" width="45" height="45" viewBox="0 0 45 45">
  <defs>
    <symbol id="a" data-name="Call" viewBox="0 0 45 45">
      <path d="M22.5,45A22.5,22.5,0,1,1,45,22.5,22.48,22.48,0,0,1,22.5,45Z" fill="#15b76c"/>
      <path d="M33.39,28.55a7.6,7.6,0,0,0-2.44-2c-.27-.16-.87-.5-1.68-1h0A2.45,2.45,0,0,0,27,25.52l-1,.54A1.16,1.16,0,0,1,24.58,26a26.89,26.89,0,0,1-2.68-2.43,16.28,16.28,0,0,1-2-2.5h0a1.29,1.29,0,0,1,.05-1.4c.88-1.13,1.17-2.09.88-2.75A27.24,27.24,0,0,0,19,13.46c-.55-1-.85-1.55-1.56-1.55-1.48-.05-3.8,1.44-3.83,3.48s.88,5.23,3.87,9a28.84,28.84,0,0,0,4.94,4.88,16.21,16.21,0,0,0,3.48,2.21,8,8,0,0,0,3.58,1A3.66,3.66,0,0,0,33.39,28.55Z" fill="#fff"/>
    </symbol>
  </defs>
  <title>Ресурс 4</title>
  <use width="45" height="45" xlink:href="#a"/>
</svg>
