<svg xmlns="http://www.w3.org/2000/svg" xmlns:xlink="http://www.w3.org/1999/xlink" width="45" height="45" viewBox="0 0 45 45">
  <defs>
    <symbol id="a" data-name="Telegram" viewBox="0 0 45 45">
      <circle cx="22.5" cy="22.5" r="22.5" fill="#2da5e1"/>
      <path d="M9.12,21.16l15.15-6.24c1.5-.65,6.57-2.73,6.57-2.73s2.34-.91,2.15,1.3c-.07.91-.59,4.09-1.11,7.54L30.26,31.24S30.13,32.74,29,33s-2.92-.91-3.25-1.18-4.88-3.12-6.57-4.55a1.23,1.23,0,0,1,.07-2.08c2.34-2.15,5.13-4.81,6.83-6.5.78-.78,1.56-2.6-1.7-.39l-9.16,6.18a3.83,3.83,0,0,1-3,.06C10.29,24,8,23.17,8,23.17s-1.56-1,1.1-2Z" fill="#fff"/>
    </symbol>
  </defs>
  <title>telegram</title>
  <use width="45" height="45" xlink:href="#a"/>
</svg>
