<svg xmlns="http://www.w3.org/2000/svg" xmlns:xlink="http://www.w3.org/1999/xlink" width="45" height="45" viewBox="0 0 45 45">
  <defs>
    <symbol id="a" data-name="Viber" viewBox="0 0 45 45">
      <g>
        <circle cx="22.5" cy="22.5" r="22.5" fill="#7d3daf"/>
        <path d="M34.92,16.12h0a9,9,0,0,0-6-5.82h0a33.28,33.28,0,0,0-12.66,0h0A9,9,0,0,0,10,16.09h0a24.89,24.89,0,0,0,0,10.66h0a9.05,9.05,0,0,0,5.71,5.75v2.83a1.13,1.13,0,0,0,1.14,1.14,1.1,1.1,0,0,0,.82-.35l2.88-3h1.86a33.68,33.68,0,0,0,6.33-.6h0a9,9,0,0,0,6.05-5.83h0A24.77,24.77,0,0,0,34.92,16.12ZM32.66,26.2a6.77,6.77,0,0,1-4.27,4.1,30.85,30.85,0,0,1-6.72.53h-.11l-2.12,2.29L17.21,35.4a.27.27,0,0,1-.38,0,.27.27,0,0,1-.08-.17V30.53a.17.17,0,0,0-.13-.15h0a6.72,6.72,0,0,1-4.27-4.1,22.71,22.71,0,0,1,0-9.64,6.71,6.71,0,0,1,4.27-4.09,31.37,31.37,0,0,1,11.75,0,6.71,6.71,0,0,1,4.27,4.09,22.55,22.55,0,0,1,0,9.64Zm-4.27.32a3.63,3.63,0,0,1-1.56,1.68,5.25,5.25,0,0,1-.67.22c-.26-.09-.51-.14-.74-.24a16.87,16.87,0,0,1-6.37-4.26,16.73,16.73,0,0,1-2.43-3.73c-.3-.64-.57-1.3-.84-2a1.68,1.68,0,0,1,.5-1.68,3.85,3.85,0,0,1,1.31-1,.84.84,0,0,1,1.06.25,13.48,13.48,0,0,1,1.68,2.29,1.08,1.08,0,0,1-.3,1.47l-.35.27a1.06,1.06,0,0,0-.27.29.72.72,0,0,0,0,.67,6.06,6.06,0,0,0,3.36,3.78,1.73,1.73,0,0,0,.87.22c.52-.07.7-.66,1.07-1a1,1,0,0,1,1.23,0c.4.25.77.52,1.16.79s.74.53,1.09.82A.86.86,0,0,1,28.39,26.52Zm.4-6.48A5.85,5.85,0,0,1,29,21.72a.07.07,0,0,1,0,.05.37.37,0,0,1-.36.38c-.25,0-.35,0-.39-.43s-.11-.91-.11-1.35a5.64,5.64,0,0,0-4.54-4.7,5.46,5.46,0,0,0-1.06-.12c-.23,0-.57,0-.57-.32v-.05a.39.39,0,0,1,.39-.38h.18A6.38,6.38,0,0,1,28.79,20Zm-2.65-.94a3.59,3.59,0,0,0-1.49-1.4,4.52,4.52,0,0,0-1.2-.37l-.6-.1h0a.34.34,0,0,1-.28-.38v0a.34.34,0,0,1,.37-.3,4.93,4.93,0,0,1,2.06.54,4.15,4.15,0,0,1,2.27,3.24V21a.81.81,0,0,1,0,.22.34.34,0,0,1-.23.22.35.35,0,0,1-.44-.22.81.81,0,0,1,0-.31A3.8,3.8,0,0,0,26.14,19.1Zm-.87,1.83h0a.4.4,0,0,1-.39-.39,2.09,2.09,0,0,0,0-.5,1.41,1.41,0,0,0-.52-.83,1.25,1.25,0,0,0-.42-.2,1.51,1.51,0,0,0-.58-.08h0a.35.35,0,0,1-.27-.42.37.37,0,0,1,.4-.3h0a2.16,2.16,0,0,1,2.15,2.18,1.5,1.5,0,0,1,0,.3A.32.32,0,0,1,25.27,20.93Z" fill="#fff"/>
      </g>
    </symbol>
  </defs>
  <title>viber</title>
  <use width="45" height="45" xlink:href="#a"/>
</svg>
